<svg width="30" height="29" viewBox="0 0 30 29" fill="none" xmlns="http://www.w3.org/2000/svg">
<path d="M8.88643 6.04179C8.88599 7.02574 8.28903 7.91119 7.37706 8.28058C6.46508 8.65 5.4202 8.4296 4.73511 7.72333C4.05002 7.01704 3.86154 5.96593 4.25854 5.06562C4.65555 4.16532 5.55876 3.5956 6.54227 3.62512C7.84856 3.66433 8.88703 4.7349 8.88643 6.04179ZM8.95893 10.2468H4.1256V25.3751H8.95893V10.2468ZM16.5956 10.2468H11.7864V25.3751H16.5473V17.4363C16.5473 13.0138 22.311 12.603 22.311 17.4363V25.3751H27.084V15.793C27.084 8.33762 18.5531 8.61553 16.5473 12.2767L16.5956 10.2468Z" fill="white"/>
</svg>
