<svg width="30" height="29" viewBox="0 0 30 29" fill="none" xmlns="http://www.w3.org/2000/svg">
<path d="M29.3074 8.42813C29.3074 5.8793 27.4326 3.82891 25.116 3.82891C21.9781 3.68164 18.7779 3.625 15.5098 3.625H14.4902C11.2277 3.625 8.02186 3.68164 4.88397 3.82891C2.57303 3.82891 0.69823 5.89062 0.69823 8.43945C0.556628 10.4559 0.494323 12.4723 0.499987 14.4887C0.494323 16.5051 0.556628 18.5215 0.692566 20.5436C0.692566 23.0924 2.56737 25.1598 4.87831 25.1598C8.17479 25.3127 11.5562 25.3807 14.9943 25.375C18.4381 25.3863 21.8082 25.3184 25.1103 25.1598C27.4269 25.1598 29.3017 23.0924 29.3017 20.5436C29.4377 18.5215 29.5 16.5051 29.4943 14.483C29.5057 12.4666 29.4433 10.4502 29.3074 8.42813ZM12.2246 20.0451V8.91523L20.4375 14.4773L12.2246 20.0451Z" fill="white"/>
</svg>
