<svg width="30" height="29" viewBox="0 0 30 29" fill="none" xmlns="http://www.w3.org/2000/svg">
<path d="M14.2484 26.089C13.3506 25.7679 13.1575 25.3306 12.791 22.7699C12.3622 19.7957 12.2688 17.9554 12.5117 17.3709C12.8397 16.5989 13.7329 16.1588 14.9841 16.1548C16.2353 16.1508 17.1246 16.5915 17.4553 17.3709C17.7051 17.9531 17.6117 19.7957 17.1761 22.7699C16.8844 24.8486 16.723 25.3753 16.3231 25.7271C16.0411 25.9687 15.6992 26.1297 15.3333 26.1931C14.9674 26.2565 14.5912 26.22 14.2444 26.0873L14.2484 26.089ZM10.4121 23.0366C7.30931 21.5107 5.32122 18.9291 4.59792 15.4972C4.4178 14.6068 4.39232 12.4913 4.55884 11.6791C5.01196 9.49557 5.87403 7.78786 7.30931 6.27838C9.37669 4.09942 12.0365 2.94565 15.0034 2.94565C16.4246 2.93417 17.8329 3.21671 19.1397 3.77553C20.4465 4.33434 21.6236 5.15735 22.5972 6.19286C24.1327 7.78842 24.997 9.47801 25.4383 11.7034C25.5889 12.4448 25.5889 14.4652 25.4479 15.2973C24.98 17.9462 23.5276 20.3202 21.3822 21.9429C20.6204 22.5195 18.7535 23.5249 18.4505 23.5249C18.3401 23.5249 18.3304 23.4116 18.3809 22.9483C18.4703 22.2057 18.561 22.0505 18.9824 21.8721C19.6553 21.5929 20.7977 20.775 21.4955 20.0715C22.7185 18.8465 23.587 17.3132 24.0087 15.6343C24.2698 14.5995 24.2403 12.3015 23.9486 11.2361C23.0497 7.85469 20.2891 5.2243 16.9065 4.51799C15.9289 4.31692 14.1351 4.31692 13.1365 4.51799C9.71314 5.21637 6.88337 7.98213 6.0162 11.4553C5.78567 12.3978 5.78567 14.6974 6.0162 15.6439C6.58884 17.9424 8.07452 20.0506 10.0218 21.308C10.3527 21.5289 10.6984 21.7267 11.0567 21.8999C11.4752 22.0811 11.5664 22.2318 11.6485 22.976C11.699 23.4292 11.6888 23.5583 11.5789 23.5583C11.1926 23.426 10.8168 23.2648 10.4546 23.0763L10.4121 23.0366ZM10.4512 18.9529C9.40841 18.1151 8.48403 16.6425 8.10284 15.1931C7.87118 14.318 7.87118 12.6522 8.11247 11.7793C8.74515 9.4225 10.4857 7.58791 12.8918 6.7383C13.7137 6.44774 15.5443 6.38204 16.5553 6.60577C20.0455 7.38457 22.5281 10.8821 22.0461 14.3531C21.888 15.6775 21.3591 16.9303 20.5202 17.9673C20.1016 18.5065 19.0753 19.4099 18.8934 19.4099C18.8646 19.4099 18.8334 19.0701 18.8334 18.6532V17.8931L19.3556 17.2701C21.3228 14.9132 21.1834 11.6196 19.0345 9.45989C18.1968 8.62217 17.2378 8.12543 15.9923 7.89774C15.1897 7.74821 15.0153 7.74821 14.1798 7.88641C12.9843 8.05274 11.8763 8.60645 11.0255 9.46272C8.86296 11.6015 8.72362 14.9104 10.6947 17.2701L11.213 17.8931V18.6555C11.213 19.0746 11.1796 19.419 11.1388 19.419C10.9088 19.2919 10.6934 19.1399 10.4965 18.9659L10.4512 18.9529ZM13.9346 14.8498C13.0402 14.4307 12.5588 13.6507 12.5491 12.6312C12.5491 11.7125 13.0589 10.911 13.9453 10.4432C14.5038 10.1475 15.5018 10.1475 16.0642 10.4432C16.6873 10.7809 17.1545 11.3479 17.367 12.024C17.9475 14.0149 15.8507 15.743 13.9533 14.8526L13.9346 14.8498Z" fill="white"/>
</svg>
