<svg width="30" height="29" viewBox="0 0 30 29" fill="none" xmlns="http://www.w3.org/2000/svg">
<path d="M19.6445 3.09473H10.3555C6.80297 3.09473 3.89844 6.00152 3.89844 9.55176V19.4469C3.89844 22.9994 6.80523 25.9039 10.3555 25.9039H19.6445C23.197 25.9039 26.1016 22.9971 26.1016 19.4469V9.55402C26.1016 6.00096 23.1948 3.09473 19.6445 3.09473ZM24.3972 19.4474C24.3922 20.7063 23.8898 21.9122 22.9996 22.8023C22.1093 23.6924 20.9034 24.1947 19.6445 24.1996H10.3555C9.09649 24.1947 7.89047 23.6924 7.00023 22.8021C6.10999 21.9119 5.60768 20.7059 5.60275 19.4469V9.55402C5.60768 8.29504 6.10999 7.08903 7.00023 6.19878C7.89047 5.30854 9.09649 4.80623 10.3555 4.80131H19.6445C20.9035 4.80623 22.1095 5.30854 22.9998 6.19878C23.89 7.08903 24.3923 8.29504 24.3972 9.55402V19.4474Z" fill="white"/>
<path d="M14.987 8.39258C13.7778 8.39258 12.5958 8.75113 11.5904 9.4229C10.585 10.0947 9.80137 11.0495 9.33861 12.1666C8.87586 13.2837 8.75475 14.513 8.99061 15.6989C9.22646 16.8848 9.80869 17.9742 10.6637 18.8293C11.5186 19.6843 12.608 20.2666 13.7939 20.5026C14.9798 20.7386 16.2091 20.6176 17.3262 20.1549C18.4434 19.6923 19.3983 18.9088 20.0701 17.9034C20.742 16.8981 21.1006 15.7161 21.1007 14.5069C21.1008 13.704 20.9427 12.9089 20.6355 12.1671C20.3283 11.4253 19.878 10.7512 19.3103 10.1835C18.7425 9.61569 18.0685 9.1653 17.3267 8.85802C16.5849 8.55074 15.7899 8.39258 14.987 8.39258ZM14.9575 18.5148C14.1657 18.5148 13.3917 18.28 12.7334 17.8401C12.075 17.4002 11.5619 16.775 11.2589 16.0435C10.9559 15.312 10.8766 14.507 11.0311 13.7304C11.1855 12.9539 11.5668 12.2405 12.1267 11.6807C12.6866 11.1208 13.3999 10.7395 14.1765 10.585C14.9531 10.4306 15.758 10.5098 16.4895 10.8128C17.221 11.1158 17.8463 11.629 18.2862 12.2873C18.7261 12.9457 18.9609 13.7197 18.9609 14.5115C18.9609 15.0372 18.8574 15.5579 18.6563 16.0437C18.4551 16.5294 18.1603 16.9708 17.7885 17.3426C17.4168 17.7144 16.9754 18.0094 16.4897 18.2106C16.0039 18.4118 15.4833 18.5154 14.9575 18.5154V18.5148Z" fill="white"/>
<path d="M21.1988 9.74605C21.9983 9.74605 22.6465 9.09788 22.6465 8.29832C22.6465 7.49876 21.9983 6.85059 21.1988 6.85059C20.3992 6.85059 19.751 7.49876 19.751 8.29832C19.751 9.09788 20.3992 9.74605 21.1988 9.74605Z" fill="white"/>
</svg>
